<svg xmlns="http://www.w3.org/2000/svg" width="780" height="320" viewBox="0 0 780 320" role="img" aria-label="RLHF pipeline">
  <rect width="780" height="320" fill="#f6f3ee"/>
  <text x="20" y="28" font-family="Georgia, serif" font-size="16" fill="#1c1917">RLHF sketch</text>
  <g font-family="Georgia, serif" font-size="13" fill="#1c1917">
    <rect x="40" y="60" width="120" height="50" rx="4" fill="#fff" stroke="#1c1917"/><text x="100" y="90" text-anchor="middle">base model</text>
    <path d="M100 110 V135" stroke="#1c1917" stroke-width="2" marker-end="url(#a)"/>
    <rect x="25" y="140" width="150" height="50" rx="4" fill="#fff" stroke="#1c1917"/><text x="100" y="170" text-anchor="middle">candidate answers</text>
    <path d="M100 190 V215" stroke="#1c1917" stroke-width="2" marker-end="url(#a)"/>
    <rect x="25" y="220" width="150" height="50" rx="4" fill="#fff" stroke="#1c1917"/><text x="100" y="250" text-anchor="middle">human preferences</text>
    <path d="M180 245 H240" stroke="#1c1917" stroke-width="2" marker-end="url(#a)"/>
    <rect x="245" y="220" width="140" height="50" rx="4" fill="#fff" stroke="#1c1917"/><text x="315" y="250" text-anchor="middle">reward model</text>
    <path d="M390 245 H450" stroke="#1c1917" stroke-width="2" marker-end="url(#a)"/>
    <rect x="455" y="220" width="140" height="50" rx="4" fill="#ffedd5" stroke="#9a3412"/><text x="525" y="250" text-anchor="middle">RL optimize</text>
    <path d="M600 245 H660" stroke="#9a3412" stroke-width="2" marker-end="url(#b)"/>
    <rect x="665" y="220" width="90" height="50" rx="4" fill="#ffedd5" stroke="#9a3412"/><text x="710" y="250" text-anchor="middle">updated</text>
  </g>
  <text x="20" y="305" font-family="Georgia, serif" font-size="12" fill="#9a3412">Not run on real preferences in this repository (paused)</text>
  <defs>
    <marker id="a" markerWidth="8" markerHeight="8" refX="6" refY="3" orient="auto"><path d="M0,0 L6,3 L0,6 Z" fill="#1c1917"/></marker>
    <marker id="b" markerWidth="8" markerHeight="8" refX="6" refY="3" orient="auto"><path d="M0,0 L6,3 L0,6 Z" fill="#9a3412"/></marker>
  </defs>
</svg>
